<?xml version="1.0" encoding="iso-8859-1"?>
<!-- Generator: Adobe Illustrator 19.0.0, SVG Export Plug-In . SVG Version: 6.00 Build 0)  -->
<svg version="1.1" id="Layer_1" xmlns="http://www.w3.org/2000/svg" xmlns:xlink="http://www.w3.org/1999/xlink" x="0px" y="0px"
	 viewBox="0 0 512 512" style="enable-background:new 0 0 512 512;" xml:space="preserve">
<path id="SVGCleanerId_0" style="fill:#FFC36E;" d="M183.295,123.586H55.05c-6.687,0-12.801-3.778-15.791-9.76l-12.776-25.55
	l12.776-25.55c2.99-5.982,9.103-9.76,15.791-9.76h128.246c6.687,0,12.801,3.778,15.791,9.76l12.775,25.55l-12.776,25.55
	C196.096,119.808,189.983,123.586,183.295,123.586z"/>
<g>
	<path id="SVGCleanerId_0_1_" style="fill:#FFC36E;" d="M183.295,123.586H55.05c-6.687,0-12.801-3.778-15.791-9.76l-12.776-25.55
		l12.776-25.55c2.99-5.982,9.103-9.76,15.791-9.76h128.246c6.687,0,12.801,3.778,15.791,9.76l12.775,25.55l-12.776,25.55
		C196.096,119.808,189.983,123.586,183.295,123.586z"/>
</g>
<path style="fill:#EFF2FA;" d="M485.517,70.621H26.483c-4.875,0-8.828,3.953-8.828,8.828v44.138h476.69V79.448
	C494.345,74.573,490.392,70.621,485.517,70.621z"/>
<rect x="17.655" y="105.931" style="fill:#E1E6F2;" width="476.69" height="17.655"/>
<path style="fill:#FFD782;" d="M494.345,88.276H217.318c-3.343,0-6.4,1.889-7.895,4.879l-10.336,20.671
	c-2.99,5.982-9.105,9.76-15.791,9.76H55.05c-6.687,0-12.801-3.778-15.791-9.76L28.922,93.155c-1.495-2.99-4.552-4.879-7.895-4.879
	h-3.372C7.904,88.276,0,96.18,0,105.931v335.448c0,9.751,7.904,17.655,17.655,17.655h476.69c9.751,0,17.655-7.904,17.655-17.655
	V105.931C512,96.18,504.096,88.276,494.345,88.276z"/>
<path style="fill:#FFC36E;" d="M485.517,441.379H26.483c-4.875,0-8.828-3.953-8.828-8.828l0,0c0-4.875,3.953-8.828,8.828-8.828
	h459.034c4.875,0,8.828,3.953,8.828,8.828l0,0C494.345,437.427,490.392,441.379,485.517,441.379z"/>
<path style="fill:#707487;" d="M361.976,331.866l-1.675-0.967c0.359-1.939,0.602-3.919,0.602-5.961c0-2.04-0.244-4.022-0.602-5.961
	l1.675-0.967c5.225-3.02,7.018-9.702,4.002-14.932c-3.026-5.219-9.702-7.033-14.932-4.002l-1.772,1.023
	c-3.005-2.564-6.438-4.584-10.23-5.937v-2.014c0-6.041-4.894-10.93-10.93-10.93c-6.036,0-10.93,4.888-10.93,10.93v2.014
	c-3.793,1.352-7.224,3.372-10.23,5.937l-1.772-1.023c-5.24-3.031-11.916-1.217-14.932,4.002c-3.016,5.23-1.223,11.912,4.002,14.932
	l1.675,0.967c-0.359,1.939-0.602,3.919-0.602,5.961c0,2.04,0.244,4.022,0.602,5.961l-1.675,0.967
	c-5.225,3.02-7.018,9.702-4.002,14.932c2.028,3.501,5.699,5.464,9.478,5.464c1.852,0,3.731-0.47,5.454-1.462l1.772-1.023
	c3.005,2.564,6.438,4.584,10.23,5.935v2.015c0,6.041,4.894,10.93,10.93,10.93c6.036,0,10.93-4.888,10.93-10.93v-2.014
	c3.793-1.352,7.224-3.372,10.23-5.937l1.772,1.023c1.724,0.993,3.603,1.462,5.454,1.462c3.778,0,7.449-1.964,9.478-5.464
	C368.993,341.568,367.2,334.887,361.976,331.866z M317.186,324.939c0-6.03,4.905-10.93,10.93-10.93s10.93,4.899,10.93,10.93
	s-4.905,10.93-10.93,10.93C322.09,335.869,317.186,330.969,317.186,324.939z"/>
<path style="fill:#959CB3;" d="M277.859,270.292h-11.801c-0.874-6.069-2.425-11.913-4.641-17.438l10.195-5.886
	c5.227-3.019,7.018-9.703,4-14.93c-3.019-5.228-9.703-7.019-14.93-4l-10.227,5.905c-3.738-4.737-8.014-9.014-12.751-12.751
	l5.905-10.227c3.018-5.227,1.227-11.912-4-14.93s-11.912-1.227-14.93,4l-5.886,10.195c-5.524-2.216-11.369-3.767-17.438-4.641
	v-11.801c0-6.036-4.893-10.93-10.93-10.93c-6.037,0-10.93,4.893-10.93,10.93v11.801c-6.069,0.874-11.913,2.425-17.438,4.641
	l-5.886-10.195c-3.018-5.227-9.703-7.018-14.93-4s-7.018,9.703-4,14.93l5.905,10.227c-4.737,3.738-9.014,8.014-12.751,12.751
	l-10.227-5.905c-5.227-3.019-11.912-1.227-14.93,4s-1.227,11.912,4,14.93l10.195,5.886c-2.216,5.524-3.767,11.369-4.641,17.438
	h-11.805c-6.036,0-10.93,4.893-10.93,10.93c0,6.036,4.893,10.93,10.93,10.93h11.802c0.875,6.068,2.425,11.912,4.641,17.437
	l-10.195,5.886c-5.227,3.018-7.018,9.702-4,14.93c3.019,5.227,9.703,7.018,14.93,4l10.228-5.905
	c3.738,4.736,8.014,9.012,12.75,12.751l-5.905,10.227c-3.018,5.228-1.227,11.912,4,14.93c5.227,3.019,11.912,1.227,14.93-4
	l5.886-10.195c5.524,2.216,11.369,3.767,17.438,4.641v11.802c0,6.036,4.893,10.93,10.93,10.93s10.93-4.894,10.93-10.93v-11.802
	c6.069-0.875,11.913-2.425,17.438-4.641l5.886,10.195c3.018,5.228,9.703,7.019,14.93,4c5.227-3.018,7.018-9.702,4-14.93
	l-5.905-10.227c4.736-3.738,9.012-8.015,12.75-12.751l10.228,5.905c5.227,3.018,11.912,1.227,14.93-4
	c3.018-5.228,1.227-11.912-4-14.93l-10.195-5.886c2.216-5.525,3.767-11.369,4.641-17.437h11.802c6.036,0,10.93-4.894,10.93-10.93
	C288.788,275.186,283.895,270.292,277.859,270.292z M245.07,281.221c0,30.131-24.516,54.647-54.647,54.647
	s-54.647-24.516-54.647-54.647s24.516-54.647,54.647-54.647S245.07,251.091,245.07,281.221z"/>
<path style="fill:#AFB9D2;" d="M190.423,226.574c-30.18,0-54.647,24.467-54.647,54.647c0,30.18,24.467,54.647,54.647,54.647
	s54.647-24.467,54.647-54.647S220.605,226.574,190.423,226.574z M190.423,314.009c-18.109,0-32.788-14.679-32.788-32.788
	s14.679-32.788,32.788-32.788s32.788,14.679,32.788,32.788C223.211,299.33,208.532,314.009,190.423,314.009z"/>
<g>
	<circle style="fill:#707487;" cx="190.422" cy="226.571" r="10.93"/>
	<circle style="fill:#707487;" cx="190.422" cy="335.868" r="10.93"/>
	<circle style="fill:#707487;" cx="245.065" cy="281.225" r="10.93"/>
	<circle style="fill:#707487;" cx="135.779" cy="281.225" r="10.93"/>
</g>
<path style="fill:#858AA0;" d="M409.012,204.716h-1.105c-1.419-6.964-4.201-13.426-8-19.157l0.826-0.826
	c4.268-4.268,4.268-11.188,0-15.457c-4.268-4.268-11.188-4.268-15.456,0l-0.826,0.826c-5.731-3.799-12.194-6.58-19.157-7.999v-1.105
	c0-6.036-4.893-10.93-10.93-10.93c-6.036,0-10.93,4.893-10.93,10.93v1.105c-6.963,1.419-13.426,4.2-19.157,7.999l-0.826-0.826
	c-4.268-4.268-11.188-4.268-15.456,0c-4.268,4.268-4.268,11.188,0,15.457l0.826,0.826c-3.799,5.731-6.58,12.193-8,19.157h-1.105
	c-6.036,0-10.93,4.893-10.93,10.93c0,6.036,4.893,10.93,10.93,10.93h1.105c1.419,6.964,4.201,13.426,8,19.157l-0.826,0.826
	c-4.268,4.268-4.268,11.188,0,15.456c4.268,4.268,11.188,4.268,15.456,0l0.826-0.826c5.731,3.799,12.193,6.58,19.157,8v1.105
	c0,6.036,4.893,10.93,10.93,10.93c6.036,0,10.93-4.894,10.93-10.93v-1.105c6.964-1.419,13.426-4.201,19.157-8l0.826,0.826
	c4.268,4.268,11.188,4.268,15.456,0c4.268-4.268,4.268-11.188,0-15.456l-0.826-0.826c3.799-5.731,6.58-12.193,8-19.157h1.105
	c6.036,0,10.93-4.894,10.93-10.93C419.94,209.609,415.048,204.716,409.012,204.716z M354.365,248.434
	c-18.08,0-32.788-14.708-32.788-32.788s14.708-32.788,32.788-32.788c18.08,0,32.788,14.708,32.788,32.788
	S372.445,248.434,354.365,248.434z"/>
<path style="fill:#707487;" d="M354.365,182.857c-18.109,0-32.788,14.679-32.788,32.788s14.679,32.788,32.788,32.788
	s32.788-14.679,32.788-32.788S372.473,182.857,354.365,182.857z M354.365,226.574c-6.036,0-10.93-4.894-10.93-10.93
	s4.893-10.93,10.93-10.93c6.036,0,10.93,4.893,10.93,10.93C365.294,221.681,360.401,226.574,354.365,226.574z"/>
<g>
</g>
<g>
</g>
<g>
</g>
<g>
</g>
<g>
</g>
<g>
</g>
<g>
</g>
<g>
</g>
<g>
</g>
<g>
</g>
<g>
</g>
<g>
</g>
<g>
</g>
<g>
</g>
<g>
</g>
</svg>
