<?xml version="1.0" encoding="UTF-8" standalone="no"?>
<!-- Created with Inkscape (http://www.inkscape.org/) -->

<svg
   width="140.62354mm"
   height="18.89426mm"
   viewBox="0 0 140.62354 18.89426"
   version="1.1"
   id="svg5"
   sodipodi:docname="sanjaydookhoo.dev2.svg"
   inkscape:version="1.2.2 (732a01da63, 2022-12-09)"
   xmlns:inkscape="http://www.inkscape.org/namespaces/inkscape"
   xmlns:sodipodi="http://sodipodi.sourceforge.net/DTD/sodipodi-0.dtd"
   xmlns="http://www.w3.org/2000/svg"
   xmlns:svg="http://www.w3.org/2000/svg">
  <sodipodi:namedview
     id="namedview7"
     pagecolor="#ffffff"
     bordercolor="#000000"
     borderopacity="0.25"
     inkscape:showpageshadow="2"
     inkscape:pageopacity="0.0"
     inkscape:pagecheckerboard="0"
     inkscape:deskcolor="#d1d1d1"
     inkscape:document-units="mm"
     showgrid="false"
     inkscape:zoom="0.73851712"
     inkscape:cx="163.1648"
     inkscape:cy="-199.04752"
     inkscape:window-width="1920"
     inkscape:window-height="1009"
     inkscape:window-x="-8"
     inkscape:window-y="-8"
     inkscape:window-maximized="1"
     inkscape:current-layer="layer1" />
  <defs
     id="defs2" />
  <g
     inkscape:label="Layer 1"
     inkscape:groupmode="layer"
     id="layer1"
     transform="translate(-60.324584,-79.670787)">
    <path
       id="rect2108"
       style="display:inline;stroke:none;stroke-width:0.264583;fill:#fca5a5;fill-opacity:1"
       d="M 60.456875,79.803078 H 107.38932 V 98.432755 H 60.456875 Z" />
    <g
       aria-label="SANJAY"
       id="text2102"
       style="font-size:11.2889px;letter-spacing:0.529167px;fill:#ececec;stroke:none;stroke-width:0.264583">
      <path
         d="m 67.792162,91.253532 q 0,0.479558 -0.225999,0.948091 -0.220486,0.468533 -0.622874,0.793751 -0.440973,0.352778 -1.030773,0.551216 -0.584289,0.198437 -1.411113,0.198437 -0.887458,0 -1.598526,-0.165364 -0.705556,-0.165365 -1.438673,-0.490583 v -1.367015 h 0.07717 q 0.622874,0.518143 1.438673,0.799263 0.8158,0.28112 1.53238,0.28112 1.014237,0 1.576478,-0.380339 0.567752,-0.380339 0.567752,-1.014237 0,-0.545704 -0.270096,-0.804775 -0.264583,-0.259071 -0.810287,-0.402388 -0.413412,-0.110243 -0.898482,-0.181901 -0.479558,-0.07166 -1.019749,-0.181901 -1.091408,-0.231511 -1.620575,-0.788239 -0.523655,-0.56224 -0.523655,-1.460722 0,-1.030773 0.870921,-1.68672 0.870921,-0.661459 2.210376,-0.661459 0.865409,0 1.587501,0.165365 0.722093,0.165364 1.278821,0.407899 v 1.289845 h -0.07717 q -0.468534,-0.396875 -1.234724,-0.655946 -0.760678,-0.264584 -1.55994,-0.264584 -0.876434,0 -1.411113,0.363802 -0.529167,0.363803 -0.529167,0.937067 0,0.512631 0.264583,0.804776 0.264584,0.292144 0.931555,0.446484 0.352778,0.07717 1.003213,0.187414 0.650435,0.110243 1.102432,0.225998 0.915018,0.242535 1.378039,0.733117 0.463022,0.490582 0.463022,1.372528 z"
         id="path2581"
         style="stroke:none" />
      <path
         d="M 76.435225,93.596199 H 75.27216 l -0.804775,-2.287546 h -3.54983 l -0.804775,2.287546 h -1.107944 l 2.98759,-8.207604 h 1.45521 z m -2.304082,-3.224613 -1.438673,-4.029387 -1.444186,4.029387 z"
         id="path2583"
         style="stroke:none" />
      <path
         d="m 84.471953,93.596199 h -1.350478 l -3.891584,-7.342195 v 7.342195 h -1.019749 v -8.207604 h 1.692232 l 3.54983,6.702785 v -6.702785 h 1.019749 z"
         id="path2585"
         style="stroke:none" />
      <path
         d="m 90.193573,91.462994 q 0,1.080383 -0.661459,1.664672 -0.655947,0.584288 -1.763891,0.584288 -0.264583,0 -0.705556,-0.04961 -0.440973,-0.0441 -0.738629,-0.110243 v -1.01975 h 0.06063 q 0.225998,0.07717 0.556728,0.159853 0.330729,0.08268 0.677995,0.08268 0.507119,0 0.804775,-0.115755 0.303169,-0.115755 0.446485,-0.330729 0.148828,-0.220487 0.187413,-0.540192 0.0441,-0.319705 0.0441,-0.738629 v -4.790066 h -1.73633 v -0.870921 h 2.827737 z"
         id="path2587"
         style="stroke:none" />
      <path
         d="m 99.261074,93.596199 h -1.163065 l -0.804776,-2.287546 h -3.54983 l -0.804775,2.287546 h -1.107943 l 2.987589,-8.207604 h 1.45521 z m -2.304082,-3.224613 -1.438674,-4.029387 -1.444185,4.029387 z"
         id="path2589"
         style="stroke:none" />
      <path
         d="m 106.40483,85.388595 -2.88837,4.608165 v 3.599439 h -1.09141 v -3.483684 l -2.899393,-4.72392 h 1.207163 l 2.24345,3.671098 2.2655,-3.671098 z"
         id="path2591"
         style="stroke:none" />
    </g>
    <text
       xml:space="preserve"
       style="font-size:3.88056px;fill:none;stroke:#000000;stroke-width:0.264583"
       x="49.440292"
       y="97.447525"
       id="text1993"><tspan
         sodipodi:role="line"
         id="tspan1991"
         style="font-size:3.88056px;stroke-width:0.264583"
         x="49.440292"
         y="97.447525" /></text>
    <g
       aria-label="DOOKHOO.DEV"
       id="text2106"
       style="font-size:11.2889px;letter-spacing:0.529167px;fill:#ffa5a5;fill-opacity:0.99;stroke-width:0.264583">
      <path
         d="m 115.66402,89.282579 q 0,1.118968 -0.49059,2.028474 -0.48507,0.909507 -1.29535,1.411113 -0.56224,0.347266 -1.25678,0.501606 -0.68902,0.154341 -1.81901,0.154341 h -2.07257 v -8.207604 h 2.05052 q 1.20165,0 1.90721,0.176389 0.71107,0.170877 1.20165,0.474046 0.83785,0.523655 1.30638,1.394576 0.46854,0.870921 0.46854,2.067059 z m -1.14102,-0.01654 q 0,-0.964628 -0.33624,-1.626087 -0.33624,-0.661459 -1.00322,-1.041798 -0.48507,-0.275608 -1.03077,-0.380339 -0.5457,-0.110243 -1.30638,-0.110243 h -1.02526 v 6.33347 h 1.02526 q 0.78824,0 1.37253,-0.115755 0.5898,-0.115756 1.08038,-0.429949 0.61185,-0.391363 0.91502,-1.030773 0.30868,-0.639411 0.30868,-1.598526 z"
         id="path6578" />
      <path
         d="m 124.07557,86.113088 q 0.50161,0.551216 0.76619,1.350479 0.2701,0.799263 0.2701,1.8135 0,1.014237 -0.27561,1.819012 -0.2701,0.799263 -0.76068,1.333943 -0.50712,0.556728 -1.20165,0.837848 -0.68902,0.28112 -1.57648,0.28112 -0.86541,0 -1.57648,-0.286633 -0.70555,-0.286632 -1.20165,-0.832335 -0.49609,-0.545704 -0.76619,-1.339455 -0.26458,-0.793751 -0.26458,-1.8135 0,-1.003213 0.26458,-1.796964 0.26459,-0.799263 0.77171,-1.367015 0.48507,-0.540191 1.20165,-0.826824 0.72209,-0.286632 1.57096,-0.286632 0.88195,0 1.58199,0.292144 0.70556,0.286633 1.19614,0.821312 z m -0.0992,3.163979 q 0,-1.598526 -0.71658,-2.463935 -0.71658,-0.870921 -1.95682,-0.870921 -1.25126,0 -1.96784,0.870921 -0.71107,0.865409 -0.71107,2.463935 0,1.615062 0.72761,2.474959 0.7276,0.854385 1.9513,0.854385 1.2237,0 1.9458,-0.854385 0.7276,-0.859897 0.7276,-2.474959 z"
         id="path6580" />
      <path
         d="m 133.49033,86.113088 q 0.50161,0.551216 0.76619,1.350479 0.2701,0.799263 0.2701,1.8135 0,1.014237 -0.27561,1.819012 -0.27009,0.799263 -0.76068,1.333943 -0.50711,0.556728 -1.20165,0.837848 -0.68902,0.28112 -1.57647,0.28112 -0.86541,0 -1.57648,-0.286633 -0.70556,-0.286632 -1.20165,-0.832335 -0.4961,-0.545704 -0.76619,-1.339455 -0.26458,-0.793751 -0.26458,-1.8135 0,-1.003213 0.26458,-1.796964 0.26458,-0.799263 0.7717,-1.367015 0.48507,-0.540191 1.20165,-0.826824 0.72209,-0.286632 1.57097,-0.286632 0.88194,0 1.58199,0.292144 0.70555,0.286633 1.19613,0.821312 z m -0.0992,3.163979 q 0,-1.598526 -0.71658,-2.463935 -0.71659,-0.870921 -1.95682,-0.870921 -1.25126,0 -1.96784,0.870921 -0.71107,0.865409 -0.71107,2.463935 0,1.615062 0.72761,2.474959 0.7276,0.854385 1.9513,0.854385 1.2237,0 1.94579,-0.854385 0.72761,-0.859897 0.72761,-2.474959 z"
         id="path6582" />
      <path
         d="m 143.38466,93.378113 h -1.41663 l -3.24666,-3.654561 -0.8158,0.870921 v 2.78364 h -1.0914 v -8.207604 h 1.0914 v 4.282947 l 3.98529,-4.282947 h 1.32292 l -3.66558,3.858511 z"
         id="path6584" />
      <path
         d="m 151.41588,93.378113 h -1.09141 v -4.018364 h -4.09554 v 4.018364 h -1.0914 v -8.207604 h 1.0914 v 3.2191 h 4.09554 v -3.2191 h 1.09141 z"
         id="path6586" />
      <path
         d="m 160.2684,86.113088 q 0.50161,0.551216 0.76619,1.350479 0.2701,0.799263 0.2701,1.8135 0,1.014237 -0.27561,1.819012 -0.2701,0.799263 -0.76068,1.333943 -0.50712,0.556728 -1.20165,0.837848 -0.68902,0.28112 -1.57648,0.28112 -0.86541,0 -1.57647,-0.286633 -0.70556,-0.286632 -1.20165,-0.832335 -0.4961,-0.545704 -0.76619,-1.339455 -0.26459,-0.793751 -0.26459,-1.8135 0,-1.003213 0.26459,-1.796964 0.26458,-0.799263 0.7717,-1.367015 0.48507,-0.540191 1.20165,-0.826824 0.72209,-0.286632 1.57096,-0.286632 0.88195,0 1.58199,0.292144 0.70556,0.286633 1.19614,0.821312 z m -0.0992,3.163979 q 0,-1.598526 -0.71658,-2.463935 -0.71658,-0.870921 -1.95681,-0.870921 -1.25126,0 -1.96784,0.870921 -0.71107,0.865409 -0.71107,2.463935 0,1.615062 0.7276,2.474959 0.72761,0.854385 1.95131,0.854385 1.22369,0 1.94579,-0.854385 0.7276,-0.859897 0.7276,-2.474959 z"
         id="path6588" />
      <path
         d="m 169.68317,86.113088 q 0.5016,0.551216 0.76619,1.350479 0.27009,0.799263 0.27009,1.8135 0,1.014237 -0.27561,1.819012 -0.27009,0.799263 -0.76067,1.333943 -0.50712,0.556728 -1.20165,0.837848 -0.68902,0.28112 -1.57648,0.28112 -0.86541,0 -1.57648,-0.286633 -0.70556,-0.286632 -1.20165,-0.832335 -0.49609,-0.545704 -0.76619,-1.339455 -0.26458,-0.793751 -0.26458,-1.8135 0,-1.003213 0.26458,-1.796964 0.26458,-0.799263 0.7717,-1.367015 0.48507,-0.540191 1.20165,-0.826824 0.7221,-0.286632 1.57097,-0.286632 0.88194,0 1.58199,0.292144 0.70555,0.286633 1.19614,0.821312 z m -0.0992,3.163979 q 0,-1.598526 -0.71658,-2.463935 -0.71658,-0.870921 -1.95682,-0.870921 -1.25126,0 -1.96784,0.870921 -0.71107,0.865409 -0.71107,2.463935 0,1.615062 0.72761,2.474959 0.7276,0.854385 1.9513,0.854385 1.2237,0 1.94579,-0.854385 0.72761,-0.859897 0.72761,-2.474959 z"
         id="path6590" />
      <path
         d="m 174.42362,93.378113 h -1.3174 v -1.570965 h 1.3174 z"
         id="path6592" />
      <path
         d="m 184.38409,89.282579 q 0,1.118968 -0.49058,2.028474 -0.48507,0.909507 -1.29536,1.411113 -0.56224,0.347266 -1.25677,0.501606 -0.68902,0.154341 -1.81901,0.154341 h -2.07257 v -8.207604 h 2.05052 q 1.20165,0 1.90721,0.176389 0.71107,0.170877 1.20165,0.474046 0.83785,0.523655 1.30638,1.394576 0.46853,0.870921 0.46853,2.067059 z m -1.14101,-0.01654 q 0,-0.964628 -0.33625,-1.626087 -0.33624,-0.661459 -1.00321,-1.041798 -0.48507,-0.275608 -1.03077,-0.380339 -0.54571,-0.110243 -1.30638,-0.110243 h -1.02526 v 6.33347 h 1.02526 q 0.78824,0 1.37252,-0.115755 0.58981,-0.115756 1.08039,-0.429949 0.61185,-0.391363 0.91502,-1.030773 0.30868,-0.639411 0.30868,-1.598526 z"
         id="path6594" />
      <path
         d="m 192.08457,93.378113 h -5.40742 v -8.207604 h 5.40742 v 0.97014 h -4.31602 v 2.24896 h 4.31602 v 0.97014 h -4.31602 v 3.048224 h 4.31602 z"
         id="path6596" />
      <path
         d="m 200.81583,85.170509 -2.98759,8.207604 h -1.45521 l -2.98759,-8.207604 h 1.16858 l 2.57418,7.220927 2.57418,-7.220927 z"
         id="path6598" />
    </g>
  </g>
</svg>
