<?xml version="1.0" encoding="utf-8"?>
<!-- Generator: Adobe Illustrator 24.1.1, SVG Export Plug-In . SVG Version: 6.00 Build 0)  -->
<svg version="1.1" id="Layer_1" xmlns="http://www.w3.org/2000/svg" xmlns:xlink="http://www.w3.org/1999/xlink" x="0px" y="0px"
	 viewBox="0 0 512 512" style="enable-background:new 0 0 512 512;" xml:space="preserve">
<style type="text/css">
	.st0{fill:#76C2AF;}
	.st1{fill:#65A192;}
	.st2{fill:#4F5D73;}
	.st3{fill:#E0E0D1;}
	.st4{fill:#58877B;}
	.st5{fill:#465162;}
	.st6{fill:#BAB9AE;}
</style>
<g id="XMLID_1_">
	<path id="XMLID_3_" class="st0" d="M256,0c141,0,256,115,256,256S397,512,256,512S0,397,0,256S115,0,256,0"/>
	<path id="XMLID_4_" class="st1" d="M174.9,359.2l-28.4,28.4c-3.2,3.2-7.1,4.7-11,4.7s-7.9-1.6-11-4.7c-0.8-0.8-1.6-2.4-2.4-3.2
		c-3.9,6.3-3.2,14.2,2.4,18.9c3.2,3.2,7.1,4.7,11,4.7s7.9-1.6,11-4.7l36.2-36.2c-0.8-0.8-0.8-0.8-1.6-1.6L174.9,359.2"/>
	<path id="XMLID_5_" class="st1" d="M330.8,112.6c-0.8,0.8-1.6,2.4-2.4,3.2l-64.6,64.6l7.9,7.9l55.9-55.9
		C333.2,126.8,334,118.9,330.8,112.6"/>
	<path id="XMLID_6_" class="st1" d="M421.4,203.2c-0.8,0.8-1.6,2.4-2.4,3.2L354.5,271l7.9,7.9l56.7-56.7
		C424.6,216.6,425.4,209.5,421.4,203.2"/>
	<path id="XMLID_7_" class="st2" d="M147.3,387.5c-6.3,6.3-15.8,6.3-22.1,0c-6.3-6.3-6.3-15.8,0-22.1l79.6-79.6
		c6.3-6.3,15.8-6.3,22.1,0c6.3,6.3,6.3,15.8,0,22.1L147.3,387.5"/>
	<path id="XMLID_8_" class="st3" d="M248.9,195.3c-6.3,6.3-15.8,6.3-22.1,0s-6.3-15.8,0-22.1l79.6-79.6c6.3-6.3,15.8-6.3,22.1,0
		c6.3,6.3,6.3,15.8,0,22.1L248.9,195.3"/>
	<path id="XMLID_9_" class="st3" d="M340.3,285.9c-6.3,6.3-15.8,6.3-22.1,0c-6.3-6.3-6.3-15.8,0-22.1l79.6-79.6
		c6.3-6.3,15.8-6.3,22.1,0c6.3,6.3,6.3,15.8,0,22.1L340.3,285.9"/>
	<path id="XMLID_12_" class="st1" d="M348.9,310.4l-42.5,42.5c-17.3,17.3-40.2,26-62.2,26c-18.9,0-37.8-6.3-53.6-18.1l-7.1,7.1
		c17.3,15.8,38.6,24.4,60.7,24.4c22.8,0,44.9-8.7,62.2-26l48.8-48.8L348.9,310.4 M133.9,274.1c-1.6,22.1,4.7,44.1,19.7,62.2l6.3-6.3
		C143.4,315.1,135.5,294.6,133.9,274.1"/>
	<path id="XMLID_13_" class="st4" d="M182,352.9l-6.3,6.3l6.3,6.3c0.8,0.8,0.8,0.8,1.6,1.6l7.1-7.1
		C187.5,357.6,184.3,355.2,182,352.9"/>
	<path id="XMLID_14_" class="st5" d="M159.1,330l-6.3,6.3c1.6,2.4,3.9,4.7,6.3,7.1l15.8,15.8l6.3-6.3l0,0L159.1,330"/>
	<path id="XMLID_15_" class="st2" d="M222.9,141.8l-63.8,63.8c-34.7,34.7-34.7,90.6,0,124.5l22.1,22.1c34.7,34.7,90.6,34.7,124.5,0
		l63.8-63.8L222.9,141.8"/>
	<path id="XMLID_18_" class="st1" d="M271.8,188.3l-1.6,1.6l60.7,60.7l1.6-1.6L271.8,188.3 M215,137.8c-3.9,0-7.9,1.6-11,4.7
		c-5.5,5.5-6.3,14.2-1.6,20.5l21.3-21.3l17.3,17.3l1.6-1.6l-15-15C222.9,139.4,219,137.8,215,137.8"/>
	<polyline id="XMLID_19_" class="st4" points="263.9,180.4 263.1,181.2 271,189 271.8,188.3 263.9,180.4 	"/>
	<polyline id="XMLID_20_" class="st6" points="241.8,157.5 240.2,159.1 263.1,181.2 263.9,180.4 241.8,157.5 	"/>
	<path id="XMLID_21_" class="st1" d="M363.1,278.8l-1.6,0.8l8.7,8.7l-6.3,7.1l6.3,6.3l-15,15l7.1,7.1c3.2,3.2,7.1,4.7,11,4.7
		c3.9,0,7.9-1.6,11-4.7c6.3-6.3,6.3-15.8,0-22.1L363.1,278.8"/>
	<polyline id="XMLID_22_" class="st4" points="354.5,271 353.7,271.8 361.6,279.6 363.1,278.8 354.5,271 	"/>
	<polyline id="XMLID_23_" class="st6" points="332.4,248.1 330.8,249.7 353.7,271.8 354.5,271 332.4,248.1 	"/>
	<polyline id="XMLID_24_" class="st4" points="363.9,295.4 348.9,310.4 355.2,316.7 370.2,301.7 363.9,295.4 	"/>
	<path id="XMLID_25_" class="st5" d="M222.9,141.8l-21.3,21.3c0.8,0.8,0.8,1.6,1.6,2.4l144.9,144.9l15-15l6.3-6.3l-7.9-9.5l-7.9-7.9
		l-22.1-22.1L271,189l-7.9-7.9l-22.8-22.1L222.9,141.8"/>
	<path id="XMLID_26_" class="st2" d="M385.2,308c-6.3,6.3-15.8,6.3-22.1,0L204,149.7c-6.3-6.3-6.3-15.8,0-22.1
		c6.3-6.3,15.8-6.3,22.1,0l158.3,158.3C391.5,292.2,391.5,301.7,385.2,308z"/>
</g>
</svg>
